<?xml version="1.0" standalone="no"?>
<!DOCTYPE svg PUBLIC "-//W3C//DTD SVG 20010904//EN"
 "http://www.w3.org/TR/2001/REC-SVG-20010904/DTD/svg10.dtd">
<svg version="1.0" xmlns="http://www.w3.org/2000/svg"
 width="701.000000pt" height="701.000000pt" viewBox="0 0 701.000000 701.000000"
 preserveAspectRatio="xMidYMid meet">
<metadata>
Created by potrace 1.14, written by Peter Selinger 2001-2017
</metadata>
<g transform="translate(0.000000,701.000000) scale(0.100000,-0.100000)"
fill="#000000" stroke="none">
<path d="M0 3505 l0 -3505 3505 0 3505 0 0 3505 0 3505 -3505 0 -3505 0 0
-3505z m3315 1287 c50 -11 124 -28 165 -40 241 -67 302 -83 370 -93 41 -6 118
-21 170 -34 52 -13 122 -26 155 -30 52 -6 197 -35 397 -79 31 -7 83 -28 115
-48 32 -20 69 -39 82 -43 37 -11 122 -70 162 -112 89 -94 147 -207 185 -360
18 -71 30 -393 15 -393 -4 0 -7 -17 -6 -37 2 -22 -5 -52 -16 -73 -11 -19 -19
-40 -19 -48 0 -7 -11 -30 -24 -51 -27 -43 -35 -76 -72 -331 -13 -96 -29 -200
-35 -230 -21 -120 -41 -250 -55 -347 -16 -122 -76 -387 -103 -461 -33 -88 -70
-144 -148 -217 -41 -38 -133 -130 -206 -203 -121 -123 -221 -209 -316 -271
-20 -13 -38 -27 -41 -31 -3 -5 -52 -32 -110 -61 -98 -49 -129 -67 -262 -153
-102 -65 -201 -96 -311 -96 -161 0 -417 43 -575 96 -44 15 -136 69 -162 96
-66 67 -111 120 -140 163 -19 28 -69 94 -112 147 -43 53 -78 101 -78 107 0 5
-4 11 -8 13 -9 3 -99 135 -132 192 -11 20 -30 53 -41 73 -115 202 -179 357
-204 495 -20 109 -19 451 1 624 18 159 59 408 85 509 18 70 81 260 90 270 5 5
9 15 9 23 0 8 20 58 44 111 59 131 93 211 127 306 68 186 157 335 263 440 113
112 209 166 347 195 65 14 290 3 394 -18z m-1465 -1257 c38 -19 68 -59 80
-106 6 -21 18 -45 27 -54 15 -16 13 -31 -32 -213 -46 -188 -84 -448 -85 -587
0 -27 -4 -55 -8 -61 -4 -6 -28 -19 -54 -29 -104 -39 -148 25 -183 267 -26 174
-31 409 -11 506 23 114 51 180 94 225 60 63 117 80 172 52z m3498 -772 c45
-54 53 -81 54 -171 1 -127 -29 -225 -127 -418 -94 -185 -142 -260 -203 -322
-69 -69 -118 -79 -164 -35 -32 30 -34 46 -13 86 8 16 40 90 71 165 32 75 61
139 66 140 4 2 8 9 8 14 0 25 86 196 118 236 25 31 58 54 118 83 86 40 113 66
92 87 -17 17 -74 15 -116 -5 -21 -9 -70 -50 -109 -92 l-73 -75 0 40 c1 77 26
174 49 190 11 8 28 29 37 45 20 39 87 71 134 65 22 -4 44 -16 58 -33z"/>
<path d="M2768 4226 c-67 -26 -156 -95 -218 -169 -72 -85 -96 -125 -82 -139
12 -12 38 1 107 53 75 57 151 89 211 89 44 0 65 -8 172 -70 120 -68 183 -93
272 -104 118 -16 194 69 146 163 -18 33 -136 91 -301 146 -128 43 -245 55
-307 31z"/>
<path d="M4144 3866 c-34 -34 -36 -40 -31 -82 6 -60 35 -88 116 -115 73 -25
116 -27 301 -15 117 8 128 7 166 -12 48 -24 85 -69 138 -165 66 -118 92 -129
83 -34 -11 117 -71 259 -140 334 -79 86 -167 111 -424 120 l-172 6 -37 -37z"/>
<path d="M2750 3461 c-88 -28 -147 -80 -182 -158 -21 -47 -28 -127 -12 -143 6
-6 51 -28 100 -49 96 -41 199 -67 306 -75 l67 -5 20 42 c29 59 35 122 21 192
-10 49 -20 66 -54 98 -48 44 -156 98 -206 103 -19 2 -46 0 -60 -5z m22 -98
c37 -33 11 -103 -38 -103 -23 0 -64 42 -64 66 0 21 37 54 62 54 12 0 30 -7 40
-17z"/>
<path d="M2404 3358 l-19 -23 25 20 c14 11 27 21 29 22 2 2 0 3 -6 3 -5 0 -18
-10 -29 -22z"/>
<path d="M4213 3120 c-18 -4 -56 -17 -85 -29 -49 -20 -56 -26 -81 -81 -27 -59
-42 -156 -28 -178 12 -19 129 -62 226 -82 55 -11 123 -18 175 -17 l85 2 19 40
c14 28 20 62 20 110 0 58 -4 79 -28 121 -15 29 -41 61 -57 73 -16 12 -27 26
-24 30 11 19 -155 27 -222 11z m27 -75 c7 -8 13 -26 13 -40 0 -34 -20 -55 -54
-55 -52 0 -77 53 -42 92 20 22 66 24 83 3z"/>
<path d="M3913 2953 c-7 -3 -13 -12 -13 -21 0 -15 2 -15 17 1 18 18 16 27 -4
20z"/>
<path d="M4718 2875 c5 -11 12 -27 15 -35 5 -13 6 -13 6 1 1 8 -6 24 -15 35
-15 19 -15 19 -6 -1z"/>
<path d="M3115 2547 c-10 -39 3 -97 30 -133 28 -36 154 -104 240 -130 69 -20
225 -23 291 -5 82 22 124 78 124 166 0 38 -21 115 -32 115 -2 0 -3 -24 -3 -53
0 -44 -5 -61 -29 -91 -16 -21 -44 -44 -62 -52 -92 -38 -379 12 -472 82 -19 15
-44 49 -57 78 -22 50 -23 50 -30 23z"/>
<path d="M2808 2291 c-127 -18 -198 -55 -198 -104 0 -19 4 -19 73 -12 39 5
180 9 312 10 316 2 356 10 341 69 -8 32 -38 38 -171 34 -55 -2 -145 0 -200 4
-55 4 -126 3 -157 -1z"/>
<path d="M3460 2225 c-27 -32 6 -64 135 -133 66 -36 138 -70 161 -77 80 -25
150 -59 218 -107 73 -51 100 -58 110 -31 28 71 -120 188 -321 254 -54 17 -123
47 -155 66 -68 42 -127 53 -148 28z"/>
<path d="M2920 2077 c-3 -3 -45 -8 -94 -10 -121 -7 -131 -17 -131 -135 1 -165
69 -341 174 -450 118 -122 306 -189 505 -180 141 6 163 23 33 25 -207 3 -433
70 -523 155 -48 45 -93 114 -109 167 l-7 24 28 -22 c137 -104 289 -165 495
-197 165 -25 302 -17 398 24 l73 32 -17 -26 c-31 -47 2 -15 66 64 64 79 119
183 119 226 0 38 -27 61 -145 121 -60 31 -128 66 -150 77 -34 18 -68 28 -180
54 -146 34 -239 47 -375 51 -85 3 -157 3 -160 0z m346 -62 c88 -16 296 -73
361 -100 18 -8 33 -19 33 -25 0 -6 5 -8 10 -5 6 3 10 1 10 -5 0 -33 -684 111
-725 153 -14 13 197 1 311 -18z m-59 -517 l38 -20 -35 7 c-39 8 -86 30 -95 45
-7 12 40 -4 92 -32z"/>
<path d="M2750 1574 c0 -15 93 -135 113 -146 13 -6 2 11 -26 42 -27 30 -55 66
-63 82 -14 26 -24 36 -24 22z"/>
<path d="M3720 1407 c-61 -57 -142 -101 -235 -128 -35 -10 -50 -18 -35 -18 81
-2 235 80 299 159 17 22 31 40 29 40 -2 -1 -28 -24 -58 -53z"/>
<path d="M3646 1399 c-21 -16 -35 -29 -30 -29 6 0 25 13 44 30 45 37 37 37
-14 -1z"/>
<path d="M2820 1302 c0 -101 199 -260 348 -277 114 -13 304 51 340 115 9 17
22 30 28 30 5 0 18 6 28 13 16 12 -3 14 -129 16 -81 1 -170 6 -198 12 -96 18
-233 58 -300 89 -37 16 -78 30 -92 30 -21 0 -25 -5 -25 -28z"/>
<path d="M3026 1321 c35 -30 213 -71 304 -70 l65 1 -50 9 c-93 16 -210 40
-269 54 -32 8 -55 10 -50 6z"/>
<path d="M1710 3385 c0 -15 31 -63 55 -85 33 -30 71 -103 80 -153 4 -20 11
-37 16 -37 12 0 11 14 -2 85 -18 100 -79 195 -125 195 -13 0 -24 -2 -24 -5z"/>
</g>
</svg>
